<?xml version="1.0" standalone="no"?>
<!DOCTYPE svg PUBLIC "-//W3C//DTD SVG 20010904//EN"
 "http://www.w3.org/TR/2001/REC-SVG-20010904/DTD/svg10.dtd">
<svg version="1.0" xmlns="http://www.w3.org/2000/svg"
 width="400.000000pt" height="400.000000pt" viewBox="0 0 400.000000 400.000000"
 preserveAspectRatio="xMidYMid meet">
<metadata>
Created by potrace 1.14, written by Peter Selinger 2001-2017
</metadata>
<g transform="translate(0.000000,400.000000) scale(0.100000,-0.100000)"
fill="#000000" stroke="none">
<path d="M1102 2389 c-50 -19 -76 -66 -73 -130 l2 -47 -268 0 c-252 1 -270 2
-302 21 -46 28 -172 29 -218 2 -38 -22 -103 -143 -105 -195 -1 -42 51 -145 93
-186 26 -25 35 -27 112 -27 67 -1 90 3 118 20 32 19 49 21 299 21 l265 1 3
-47 c5 -108 37 -134 167 -138 109 -4 150 12 178 69 l19 37 1051 0 1052 1 55
27 c263 133 280 147 280 217 0 65 -23 87 -174 172 l-141 78 -1065 3 -1066 2
-9 32 c-17 55 -52 72 -158 74 -50 1 -102 -2 -115 -7z"/>
</g>
</svg>
